#!OML:ASF Y:\EmotionMaleHayes\Project 1\Capture day 1\Session 1\Male1.ASF
:FULLY-SPECIFIED
:DEGREES
2124
root -8.71932 17.6215 16.3295 560.973 257.755 163.318
lowerback 8.95824 2.98419 -12.8732
upperback 6.41852 2.66558 -5.10709
thorax 1.43115 0.854921 1.59692
lowerneck -24.1887 -1.43864 0.564915
upperneck 20.9853 -3.09668 3.13898
head 10.8114 -0.97654 0.543078
rclavicle 1.11319e-014 4.13472e-014
rhumerus 31.3968 17.0416 -32.6651
rradius 42.2901
rwrist -5.1309
rhand -6.04189 -31.6084
rfingers 7.12502
rthumb 19.7921 -60.6207
lclavicle 1.11319e-014 4.13472e-014
lhumerus 36.0687 -12.2175 28.8186
lradius 41.3751
lwrist 4.43903
lhand -17.8851 -26.6181
lfingers 7.12502
lthumb 8.38125 3.19558
rfemur -4.73213 -8.34606 16.2488
rtibia 19.7674
rfoot -13.3998 -0.0242659
rtoes -0.516257
lfemur -0.394643 -1.56456 -12.4079
ltibia 13.8114
lfoot -15.29 12.7122
ltoes -7.49481
2125
root -8.81462 17.6223 16.3503 560.712 257.822 163.549
lowerback 8.87899 2.932 -13.0353
upperback 6.3567 2.59384 -5.1389
thorax 1.41504 0.818194 1.65944
lowerneck -24.328 -1.45388 0.493773
upperneck 21.2112 -3.09689 3.10807
head 10.9208 -0.98151 0.543104
rclavicle -1.90833e-014 8.5875e-014
rhumerus 31.3813 16.8504 -32.4989
rradius 42.1491
rwrist -5.20098
rhand -6.28718 -31.4549
rfingers 7.12502
rthumb 19.5563 -60.4913
lclavicle -1.90833e-014 8.5875e-014
lhumerus 36.3686 -12.5651 28.7035
lradius 41.4985
lwrist 4.61365
lhand -17.8528 -26.4452
lfingers 7.12502
lthumb 8.41236 3.36728
rfemur -5.19326 -8.45246 16.3114
rtibia 18.9737
rfoot -13.1829 -0.267631
rtoes -1.65661
lfemur 0.191602 -1.66165 -12.5414
ltibia 13.4161
lfoot -14.9228 13.0623
ltoes -8.80066
2126
root -8.91228 17.6209 16.3715 559.89 258.068 164.33
lowerback 8.70916 2.90931 -13.3249
upperback 6.31346 2.56457 -5.26321
thorax 1.4652 0.793623 1.69219
lowerneck -24.3499 -1.48767 0.473808
upperneck 21.3531 -3.14374 3.10366
head 10.9785 -1.00307 0.537079
rclavicle -2.3059e-014 -6.36111e-015
rhumerus 31.2973 16.6156 -32.5388
rradius 42.0994
rwrist -5.17088
rhand -6.40319 -31.4557
rfingers 7.12502
rthumb 19.4447 -60.5034
lclavicle -2.3059e-014 -6.36111e-015
lhumerus 36.5731 -12.7212 28.7088
lradius 41.6908
lwrist 4.7261
lhand -17.5587 -26.5693
lfingers 7.12502
lthumb 8.69625 3.23158
rfemur -5.77407 -8.55148 16.1621
rtibia 18.3869
rfoot -12.9263 -0.470355
rtoes -2.29435
lfemur 0.86852 -1.88493 -12.9272
ltibia 13.0015
lfoot -14.5787 13.8065
ltoes -7.87041
2127
root -9.01048 17.6243 16.3905 558.419 258.358 165.653
lowerback 8.71346 2.95948 -13.7348
upperback 6.31486 2.58967 -5.38308
thorax 1.45756 0.790967 1.78255
lowerneck -24.6243 -1.62768 0.0566749
upperneck 21.6224 -3.305 3.48212
head 11.1478 -1.05474 0.716514
rclavicle -5.08889e-014 -7.95139e-014
rhumerus 31.2048 16.2937 -32.496
rradius 42.1062
rwrist -5.18799
rhand -6.27102 -31.5828
rfingers 7.12502
rthumb 19.5718 -60.6177
lclavicle -5.08889e-014 -7.95139e-014
lhumerus 36.7298 -12.8877 28.9112
lradius 41.9051
lwrist 4.91378
lhand -17.5669 -26.8283
lfingers 7.12502
lthumb 8.68827 2.97288
rfemur -6.23554 -8.3826 15.898
rtibia 17.8412
rfoot -12.7744 -0.738562
rtoes -0.731487
lfemur 1.66338 -2.06562 -13.4396
ltibia 12.6494
lfoot -14.5573 14.3441
ltoes -7.26195
2128
root -9.10916 17.6284 16.4062 557.46 258.539 166.403
lowerback 8.80772 3.00241 -14.0808
upperback 6.30701 2.59725 -5.37503
thorax 1.38828 0.785573 1.97157
lowerneck -24.7509 -1.64309 -0.163129
upperneck 21.775 -3.2539 3.48965
head 11.2306 -1.04528 0.76392
rclavicle 7.95139e-016 -7.31528e-014
rhumerus 31.185 16.0729 -32.2743
rradius 42.1347
rwrist -5.41286
rhand -6.29021 -31.6496
rfingers 7.12502
rthumb 19.5534 -60.6864
lclavicle 7.95139e-016 -7.31528e-014
lhumerus 36.8144 -13.0558 29.3163
lradius 42.0694
lwrist 4.89509
lhand -17.7736 -26.9647
lfingers 7.12502
lthumb 8.48881 2.84472
rfemur -6.58547 -8.0936 15.8569
rtibia 17.2582
rfoot -12.9094 -1.05448
rtoes 0.281007
lfemur 2.4631 -2.17155 -13.7109
ltibia 12.3413
lfoot -14.633 14.5463
ltoes -8.58408
2129
root -9.20715 17.6275 16.4194 556.806 258.656 166.898
lowerback 8.8118 2.98397 -14.3171
upperback 6.24584 2.54618 -5.40777
thorax 1.32368 0.7588 2.06711
lowerneck -24.6059 -1.64513 -0.254445
upperneck 21.8415 -3.21657 3.45675
head 11.2284 -1.04208 0.773782
rclavicle 1.03368e-014 9.85972e-014
rhumerus 31.0746 15.9161 -32.3034
rradius 42.2008
rwrist -5.54447
rhand -6.45737 -31.571
rfingers 7.12502
rthumb 19.3926 -60.624
lclavicle 1.03368e-014 9.85972e-014
lhumerus 36.8577 -13.1967 29.6493
lradius 42.2227
lwrist 4.76381
lhand -17.7908 -27.0791
lfingers 7.12502
lthumb 8.47221 2.73093
rfemur -6.97923 -7.92232 15.9157
rtibia 16.6153
rfoot -13.0437 -1.28081
rtoes -0.50978
lfemur 3.2299 -2.36365 -13.9051
ltibia 12.0381
lfoot -15.0583 14.5156
ltoes -7.42682
2130
root -9.30332 17.6221 16.4379 554.673 258.799 168.993
lowerback 8.71599 2.93999 -14.6949
upperback 6.2113 2.466 -5.59403
thorax 1.35141 0.706604 2.08173
lowerneck -24.5536 -1.78495 -0.551849
upperneck 21.8554 -3.39655 3.79605
head 11.2412 -1.10552 0.917564
rclavicle 7.15625e-015 -3.18055e-014
rhumerus 30.9895 15.7206 -32.3849
rradius 42.2421
rwrist -5.60385
rhand -6.56345 -31.286
rfingers 7.12502
rthumb 19.2906 -60.3492
lclavicle 7.15625e-015 -3.18055e-014
lhumerus 37.0212 -13.3733 29.6842
lradius 42.4039
lwrist 4.84323
lhand -17.8327 -27.2174
lfingers 7.12502
lthumb 8.43177 2.59426
rfemur -7.50813 -8.06267 15.557
rtibia 16.0835
rfoot -13.0567 -1.14043
rtoes -0.586411
lfemur 3.83254 -2.37322 -14.5294
ltibia 12.0118
lfoot -15.5708 14.3014
ltoes -6.07803
2131
root -9.40212 17.6152 16.459 552.909 258.957 170.719
lowerback 8.58759 2.90419 -14.9303
upperback 6.19396 2.41678 -5.77597
thorax 1.4141 0.671505 2.02283
lowerneck -24.369 -1.79858 -0.674589
upperneck 21.6365 -3.41065 3.98722
head 11.1319 -1.10313 1.00535
rclavicle 2.70347e-014 1.43125e-013
rhumerus 30.8704 15.5436 -32.4072
rradius 42.3578
rwrist -5.80668
rhand -6.7526 -31.0175
rfingers 7.12502
rthumb 19.1088 -60.0988
lclavicle 2.70347e-014 1.43125e-013
lhumerus 37.2375 -13.5273 29.6562
lradius 42.5867
lwrist 4.87489
lhand -17.85 -27.2213
lfingers 7.12502
lthumb 8.41514 2.59105
rfemur -8.15075 -8.32525 15.3218
rtibia 15.8155
rfoot -13.0615 -0.916298
rtoes -2.44894
lfemur 4.42242 -2.47137 -15.0608
ltibia 11.7074
lfoot -15.6176 14.2934
ltoes -5.74482
2132
root -9.50378 17.6104 16.4705 553.409 259.074 170.066
lowerback 8.49977 2.85288 -14.8351
upperback 6.17446 2.37167 -5.82115
thorax 1.45143 0.651492 1.9313
lowerneck -24.2354 -1.72491 -0.554903
upperneck 21.5374 -3.3075 3.84545
head 11.062 -1.06798 0.950825
rclavicle -4.77083e-015 -5.725e-014
rhumerus 30.8466 15.3712 -32.5376
rradius 42.421
rwrist -5.94822
rhand -6.78259 -30.9702
rfingers 7.12502
rthumb 19.0799 -60.0544
lclavicle -4.77083e-015 -5.725e-014
lhumerus 37.3641 -13.5686 29.7316
lradius 42.7073
lwrist 4.77752
lhand -17.7645 -27.1325
lfingers 7.12502
lthumb 8.49766 2.67654
rfemur -8.6493 -8.17617 15.7428
rtibia 15.3673
rfoot -12.8284 -0.966558
rtoes -4.78224
lfemur 5.18253 -2.39642 -14.916
ltibia 11.2457
lfoot -15.2381 14.524
ltoes -8.26065
2133
root -9.60407 17.6056 16.4803 552.774 259.177 170.578
lowerback 8.38592 2.78857 -14.9619
upperback 6.20233 2.30128 -5.88401
thorax 1.55522 0.604847 1.94188
lowerneck -24.3299 -1.69005 -0.590315
upperneck 21.6086 -3.2421 3.81852
head 11.1042 -1.04256 0.957596
rclavicle 2.14687e-014 -3.49861e-014
rhumerus 31.117 15.3119 -32.3307
rradius 42.4063
rwrist -6.0739
rhand -6.4452 -31.2801
rfingers 7.12502
rthumb 19.4043 -60.3319
lclavicle 2.14687e-014 -3.49861e-014
lhumerus 37.5284 -13.5954 29.8042
lradius 42.7944
lwrist 4.90592
lhand -17.8982 -26.9652
lfingers 7.12502
lthumb 8.36862 2.84897
rfemur -9.07743 -7.97003 15.8776
rtibia 14.722
rfoot -12.4605 -0.932141
rtoes -4.49843
lfemur 5.91413 -2.57036 -15.0827
ltibia 10.7929
lfoot -15.1875 14.8033
ltoes -10.0717
2134
root -9.70419 17.5973 16.4964 549.932 259.318 173.413
lowerback 8.25889 2.76972 -15.4038
upperback 6.19476 2.26254 -6.02281
thorax 1.62222 0.56647 2.03589
lowerneck -24.5459 -1.81165 -0.977984
upperneck 21.7899 -3.36105 4.12203
head 11.2287 -1.08453 1.11335
rclavicle -1.82882e-014 -2.22639e-014
rhumerus 31.1969 15.2765 -31.9734
rradius 42.5346
rwrist -6.095
rhand -6.30309 -31.4533
rfingers 7.12502
rthumb 19.541 -60.4913
lclavicle -1.82882e-014 -2.22639e-014
lhumerus 37.6978 -13.7237 29.9947
lradius 42.9583
lwrist 5.15812
lhand -18.1033 -26.9436
lfingers 7.12502
lthumb 8.17067 2.87842
rfemur -9.62605 -7.98752 15.4526
rtibia 14.2288
rfoot -12.1442 -0.820493
rtoes -2.59606
lfemur 6.49858 -2.77688 -15.851
ltibia 10.5238
lfoot -15.4105 14.9284
ltoes -10.9354
2135
root -9.80922 17.5854 16.5076 547.019 259.437 176.342
lowerback 8.09994 2.751 -15.9823
upperback 6.12786 2.21967 -6.10179
thorax 1.64008 0.527761 2.26569
lowerneck -24.5106 -1.71413 -0.708792
upperneck 21.8821 -3.17117 3.55421
head 11.2336 -1.04896 0.892525
rclavicle -4.77083e-015 -3.49861e-014
rhumerus 31.0185 14.8834 -32.2394
rradius 42.8282
rwrist -5.96757
rhand -5.95707 -31.689
rfingers 7.12502
rthumb 19.8736 -60.6929
lclavicle -4.77083e-015 -3.49861e-014
lhumerus 37.7122 -13.9056 30.2435
lradius 43.1344
lwrist 5.33384
lhand -18.0934 -27.1047
lfingers 7.12502
lthumb 8.1802 2.71691
rfemur -10.1912 -7.97306 15.09
rtibia 13.8343
rfoot -11.7461 -0.917638
rtoes -0.89051
lfemur 7.07119 -2.70113 -16.5014
ltibia 10.2552
lfoot -15.4604 14.8676
ltoes -11.4682
2136
root -9.91643 17.5724 16.5097 546.136 259.45 177.18
lowerback 7.85716 2.64905 -16.1816
upperback 6.14147 2.12686 -6.16162
thorax 1.80492 0.464719 2.32168
lowerneck -24.394 -1.68933 -0.58035
upperneck 21.7381 -3.15023 3.45666
head 11.1533 -1.04446 0.838958
rclavicle 7.95139e-016 1.11319e-013
rhumerus 31.3398 14.7908 -32.0876
rradius 43.0224
rwrist -6.93536
rhand -5.64384 -32.8732
rfingers 7.12502
rthumb 20.1747 -61.8456
lclavicle 7.95139e-016 1.11319e-013
lhumerus 37.7766 -14.0356 30.0894
lradius 43.3533
lwrist 5.67992
lhand -18.0855 -27.0733
lfingers 7.12502
lthumb 8.18779 2.74804
rfemur -10.7145 -7.83295 15.2766
rtibia 13.4113
rfoot -11.3016 -1.24324
rtoes 0.230164
lfemur 7.59103 -2.55678 -16.5348
ltibia 10.1168
lfoot -15.3973 14.7062
ltoes -12.1074
2137
root -10.016 17.5598 16.5142 546.667 259.529 176.481
lowerback 7.91569 2.61413 -16.0017
upperback 6.07477 2.07303 -6.17724
thorax 1.71024 0.454199 2.21293
lowerneck -24.0549 -1.62788 -0.542659
upperneck 21.5601 -3.06882 3.45116
head 11.0214 -1.01214 0.844739
rclavicle 2.06736e-014 1.36764e-013
rhumerus 31.4239 14.8382 -32.0632
rradius 42.9095
rwrist -6.51991
rhand -5.96704 -32.2714
rfingers 7.12502
rthumb 19.864 -61.2762
lclavicle 2.06736e-014 1.36764e-013
lhumerus 37.7385 -14.2918 29.9405
lradius 43.6949
lwrist 5.9619
lhand -18.3338 -26.9336
lfingers 7.12502
lthumb 7.9482 2.89692
rfemur -11.2191 -7.57826 15.7914
rtibia 13.0136
rfoot -10.7683 -1.70206
rtoes 1.04921
lfemur 8.17518 -2.51495 -16.2896
ltibia 10.0457
lfoot -15.4007 14.6777
ltoes -13.5513
2138
root -10.1117 17.5487 16.5328 545.225 259.759 177.672
lowerback 8.23056 2.66501 -16.0506
upperback 5.92515 2.04201 -6.25069
thorax 1.3783 0.464295 2.15417
lowerneck -23.5487 -1.64151 -0.595854
upperneck 21.2822 -3.04664 3.42036
head 10.8243 -1.02061 0.846862
rclavicle -4.85035e-014 -1.20861e-013
rhumerus 31.3794 14.9264 -32.0319
rradius 42.9288
rwrist -6.2654
rhand -6.16825 -31.8433
rfingers 7.12502
rthumb 19.6706 -60.8681
lclavicle -4.85035e-014 -1.20861e-013
lhumerus 37.5529 -14.5669 30.1125
lradius 43.9701
lwrist 5.94261
lhand -18.4262 -26.9064
lfingers 7.12502
lthumb 7.85903 2.92752
rfemur -11.7358 -7.7295 15.8273
rtibia 12.8489
rfoot -10.0864 -1.81752
rtoes 0.852378
lfemur 8.98354 -2.52942 -16.6489
ltibia 9.77902
lfoot -15.3818 14.8725
ltoes -15.6936
